<svg width="18" height="17" xmlns="http://www.w3.org/2000/svg"><path d="M13.105 14.172c-.6 0-1.185-.17-1.683-.488a2.93 2.93 0 01-1.116-1.3 2.781 2.781 0 01-.172-1.675 2.86 2.86 0 01.829-1.483 3.074 3.074 0 011.55-.793 3.157 3.157 0 011.75.165c.554.219 1.027.59 1.36 1.067a2.81 2.81 0 01.51 1.61c0 .768-.32 1.504-.887 2.047a3.104 3.104 0 01-2.141.85zm0-4.787c-.391 0-.773.11-1.098.318a1.911 1.911 0 00-.727.848c-.15.346-.19.726-.113 1.092.076.367.264.703.54.968.277.264.63.444 1.012.517.383.073.78.035 1.142-.108.36-.143.67-.385.886-.696a1.83 1.83 0 00.333-1.05c0-.5-.209-.98-.579-1.335a2.024 2.024 0 00-1.396-.554zm-8.693 4.787c-.599 0-1.184-.17-1.683-.488a2.93 2.93 0 01-1.115-1.3 2.78 2.78 0 01-.173-1.675 2.86 2.86 0 01.83-1.483 3.074 3.074 0 011.55-.793 3.157 3.157 0 011.75.165c.554.219 1.027.59 1.36 1.067.333.476.51 1.036.51 1.61 0 .768-.32 1.504-.888 2.047a3.104 3.104 0 01-2.14.85zm0-4.787c-.39 0-.772.11-1.097.318a1.91 1.91 0 00-.728.848c-.15.346-.188.726-.112 1.092.076.367.264.703.54.968.277.264.629.444 1.012.517.383.073.78.035 1.141-.108.361-.143.67-.385.887-.696a1.83 1.83 0 00.333-1.05c0-.5-.21-.98-.58-1.335a2.024 2.024 0 00-1.396-.554zm6.454-5.291a1.092 1.092 0 00.747-.296.966.966 0 00.306-.716.957.957 0 00-.303-.712 1.08 1.08 0 00-.744-.292 1.095 1.095 0 00-.746.293 1.006 1.006 0 00-.23.326.97.97 0 00.226 1.1 1.067 1.067 0 00.744.297z"/><path d="M12.431 6.11h-1.44a.136.136 0 01-.068-.018.128.128 0 01-.048-.048L9.83 4.212a.99.99 0 00-.31-.344 1.065 1.065 0 00-.911-.137 1.03 1.03 0 00-.405.237l-2.3 2.217a1.003 1.003 0 00-.306.705c0 .548.415.744.609.854.938.517 1.599.895 1.961 1.105a.13.13 0 01.047.046c.01.019.017.04.017.062v2.177c0 .27.218.503.501.517a.548.548 0 00.389-.138.505.505 0 00.163-.365V8.44c0-.08-.02-.159-.058-.23a.511.511 0 00-.16-.18l-1.22-.838a.128.128 0 01-.054-.09.121.121 0 01.036-.099l1.383-1.41a.132.132 0 01.112-.04c.02.003.04.01.057.021a.128.128 0 01.042.044l.718 1.24a.516.516 0 00.194.19c.081.045.173.07.267.07h1.844a.547.547 0 00.382-.157.502.502 0 00.145-.372c-.014-.271-.258-.48-.542-.48z"/></svg>