<svg
  width="13"
  height="11"
  viewBox="0 0 13 11"
  xmlns="http://www.w3.org/2000/svg"
>
  <path
    d="M3.06383 0C4.7566 0 6.12766 1.3475 6.12766 3.00979C6.12766 1.3475 7.49873 0 9.19149 0C10.8843 0 12.2553 1.3475 12.2553 3.00979C12.2553 5.51513 9.77822 6.39887 6.42792 10.3868C6.39103 10.4306 6.34505 10.4658 6.29319 10.49C6.24134 10.5141 6.18484 10.5267 6.12766 10.5267C6.07048 10.5267 6.01399 10.5141 5.96213 10.49C5.91027 10.4658 5.86429 10.4306 5.82741 10.3868C2.47711 6.39887 0 5.51513 0 3.00979C0 1.3475 1.37106 0 3.06383 0Z"
    fill="#F02323"
  />
</svg>
